<?xml version="1.0" encoding="UTF-8" ?>
<!DOCTYPE svg PUBLIC "-//W3C//DTD SVG 1.1//EN" "http://www.w3.org/Graphics/SVG/1.1/DTD/svg11.dtd">
<svg width="1200pt" height="1200pt" viewBox="0 0 1200 1200" version="1.1" xmlns="http://www.w3.org/2000/svg">
<defs>
<linearGradient id="gradient1" x1="0%" y1="0%" x2="100%" y2="0%">
            <stop offset="0%" style="stop-color:#B73741;stop-opacity:1" />
            <stop offset="100%" style="stop-color:#D96545;stop-opacity:1" />
        </linearGradient>
<linearGradient id="gradient2" x1="0%" y1="0%" x2="100%" y2="0%">
            <stop offset="0%" style="stop-color:#86972B;stop-opacity:1" />
            <stop offset="100%" style="stop-color:#99C63A;stop-opacity:1" />
        </linearGradient>
<linearGradient id="gradient3" x1="0%" y1="0%" x2="0%" y2="100%">
            <stop offset="0%" style="stop-color:#AED3FF;stop-opacity:1" />
            <stop offset="100%" style="stop-color:#5D84BC;stop-opacity:1" />
        </linearGradient>
</defs>
<g id="#3e2440ff">
<path fill="#3e2440" opacity="1.00" d=" M 418.87 129.96 C 467.05 108.32 520.63 101.56 573.05 102.37 C 596.44 102.90 619.84 104.78 642.89 108.84 C 607.95 115.82 572.77 125.86 542.79 145.75 C 524.33 158.01 508.31 174.70 499.23 195.11 C 489.98 215.37 488.04 238.31 490.83 260.22 C 495.43 295.14 510.07 327.92 528.15 357.86 C 533.43 366.47 539.03 374.89 545.13 382.94 C 576.10 365.71 606.99 348.34 637.91 331.01 C 637.60 355.66 638.98 380.29 639.94 404.91 C 644.32 498.25 649.95 591.52 655.59 684.79 C 556.39 679.40 457.20 673.83 358.00 668.43 C 330.04 666.73 302.06 665.52 274.11 663.66 C 295.05 637.17 316.06 610.73 336.84 584.11 C 321.68 539.99 309.13 494.89 300.76 448.96 C 292.03 399.79 287.95 349.19 295.36 299.57 C 300.92 262.36 313.76 225.67 336.31 195.26 C 357.32 166.57 386.52 144.43 418.87 129.96 Z" />
</g>
<g id="#bd4840ff">
<path fill="url(#gradient1)" opacity="1.00" d=" M 693.30 315.92 C 716.50 337.92 739.52 360.10 762.84 381.97 C 800.18 362.14 839.98 345.82 881.93 339.17 C 915.70 333.82 951.44 336.01 982.85 350.32 C 1009.14 362.05 1031.33 381.70 1048.27 404.78 C 1069.57 433.73 1083.60 467.39 1093.36 501.81 C 1100.78 528.32 1105.73 555.50 1108.27 582.91 C 1108.41 585.01 1108.47 587.13 1108.53 589.25 C 1105.14 572.76 1100.31 556.42 1092.61 541.40 C 1086.24 529.14 1077.56 517.61 1065.63 510.32 C 1054.75 503.57 1041.51 501.15 1028.86 502.62 C 1012.54 504.37 997.18 510.97 983.02 518.99 C 961.58 531.47 942.07 547.22 924.88 565.06 C 940.57 589.87 956.12 614.77 971.89 639.52 C 874.07 657.39 776.12 674.59 678.28 692.38 C 683.16 566.89 688.20 441.41 693.30 315.92 Z" />
</g>
<g id="#92b635ff">
<path fill="url(#gradient2)" opacity="1.00" d=" M 79.09 685.75 C 86.43 699.31 95.71 711.73 105.19 723.86 C 128.29 752.76 155.89 778.57 188.30 796.72 C 209.20 808.43 232.22 816.65 256.05 819.65 C 291.30 824.45 327.39 817.06 359.51 802.31 C 368.95 798.05 378.04 793.06 386.98 787.84 C 362.87 760.91 338.51 734.20 314.23 707.42 C 428.73 709.81 543.24 712.46 657.74 714.83 C 658.89 755.88 659.37 796.96 658.63 838.02 C 658.31 865.03 657.20 892.03 655.14 918.96 C 653.61 934.79 652.13 950.71 648.27 966.18 C 647.23 969.77 646.48 973.53 644.52 976.77 C 622.45 962.92 600.07 949.57 577.94 935.83 C 550.61 943.79 522.45 948.69 494.14 951.47 C 434.29 957.13 372.94 952.32 315.74 933.17 C 282.29 921.95 250.47 905.81 221.91 885.07 C 191.41 862.99 164.73 835.82 142.40 805.55 C 117.95 772.44 98.60 735.76 83.31 697.61 C 81.87 693.67 79.90 689.89 79.09 685.75 Z" />
</g>
<g id="#89afe0ff">
<path fill="url(#gradient3)" opacity="1.00" d=" M 678.18 707.35 C 783.33 702.25 888.48 697.25 993.64 692.33 C 973.88 714.59 953.94 736.70 934.21 758.99 C 937.52 784.84 936.74 811.11 933.60 836.94 C 927.92 882.29 912.72 926.88 886.59 964.60 C 865.99 994.58 838.58 1019.66 807.44 1038.36 C 768.24 1062.02 723.85 1076.00 678.90 1083.58 C 698.59 1078.89 717.61 1071.27 735.17 1061.19 C 752.97 1050.74 769.67 1036.82 779.01 1018.04 C 787.18 1002.14 788.23 983.28 783.79 966.12 C 780.74 953.66 775.10 942.03 768.81 930.92 C 762.31 934.40 756.49 939.04 750.25 942.98 C 730.99 955.94 711.63 968.75 692.44 981.80 C 687.73 890.32 682.77 798.84 678.18 707.35 Z" />
</g>
</svg>
