<?xml version="1.0" standalone="no"?><!DOCTYPE svg PUBLIC "-//W3C//DTD SVG 1.1//EN" "http://www.w3.org/Graphics/SVG/1.1/DTD/svg11.dtd"><svg t="1720399516979" class="icon" viewBox="0 0 1024 1024" version="1.1" xmlns="http://www.w3.org/2000/svg" p-id="13907" xmlns:xlink="http://www.w3.org/1999/xlink" width="200" height="200"><path d="M743.992889 338.005333c73.329778-9.329778 138.353778 10.666667 195.015111 60.017778C995.669333 447.317333 1024 509.297778 1024 583.964444c0 67.982222-24.32 126.350222-72.988444 175.018667-48.668444 48.64-107.008 72.988444-175.018667 72.988445-73.329778 0-134.656-27.335111-183.978667-82.005334 0 42.666667 5.660444 73.329778 16.981334 92.017778 11.349333 18.659556 41.016889 38.656 89.031111 59.989333 13.312 5.319111 23.637333 14.990222 30.976 29.013334 7.338667 13.994667 9.329778 28.330667 5.973333 42.979555a61.696 61.696 0 0 1-22.983111 36.010667c-12.003556 9.329778-25.315556 13.994667-39.992889 13.994667h-320c-14.677333 0-27.989333-4.664889-39.992889-13.994667a62.065778 62.065778 0 0 1-23.011555-37.006222 59.989333 59.989333 0 0 1 6.001777-43.008 60.273778 60.273778 0 0 1 31.004445-27.989334c33.336889-16.014222 57.998222-31.345778 74.012444-45.994666 15.985778-14.677333 25.315556-28.672 27.989334-42.012445 2.673778-13.340444 3.982222-34.673778 3.982222-64-49.322667 54.670222-110.648889 82.005333-183.978667 82.005334-67.982222 0-126.350222-24.348444-175.018667-72.988445C24.348444 710.343111 0 652.003556 0 583.964444c0-74.666667 28.330667-136.647111 84.992-185.998222 56.661333-49.322667 121.685333-69.319111 195.015111-60.017778-30.663111-81.322667-21.674667-157.980444 26.993778-229.973333C355.640889 36.010667 423.992889 0 512 0c57.344 0 108.003556 17.351111 152.007111 51.996444 44.003556 34.673778 72.647111 76.999111 85.987556 127.004445 13.340444 50.005333 11.349333 102.997333-5.973334 159.004444z" p-id="13908" fill="#000000"></path></svg>