<svg width="394" height="97" xmlns="http://www.w3.org/2000/svg" xmlns:xlink="http://www.w3.org/1999/xlink" xml:space="preserve" overflow="hidden"><g transform="translate(-73 -45)"><g><path d="M77 94.9999C77 70.147 97.1472 49.9998 122 49.9998 146.853 49.9998 167 70.147 167 94.9999 167 119.853 146.853 140 122 140 97.1472 140 77 119.853 77 94.9999Z" fill="#FF5F57" fill-rule="evenodd" fill-opacity="1"/><path d="M225 94.9999C225 70.147 245.147 49.9998 270 49.9998 294.853 49.9998 315 70.147 315 94.9999 315 119.853 294.853 140 270 140 245.147 140 225 119.853 225 94.9999Z" fill="#FFBB2E" fill-rule="evenodd" fill-opacity="1"/><path d="M374 94.9999C374 70.147 394.147 49.9998 419 49.9998 443.853 49.9998 464 70.147 464 94.9999 464 119.853 443.853 140 419 140 394.147 140 374 119.853 374 94.9999Z" fill="#29C73E" fill-rule="evenodd" fill-opacity="1"/></g></g></svg>